<?xml version="1.0" encoding="UTF-8"?>
<svg id="Layer_1" data-name="Layer 1" xmlns="http://www.w3.org/2000/svg" xmlns:xlink="http://www.w3.org/1999/xlink" viewBox="0 0 69.5 69.5">
  <defs>
    <style>
      .cls-1 {
        fill: #fff;
        filter: url(#drop-shadow-2);
      }

      .cls-1, .cls-2 {
        stroke: #190af8;
        stroke-linecap: round;
        stroke-miterlimit: 10;
        stroke-width: 1.5px;
      }

      .cls-2 {
        fill: none;
      }

      .cls-3 {
        fill: #38bb39;
      }
    </style>
    <filter id="drop-shadow-2" x="14.2" y="8.98" width="46" height="55" filterUnits="userSpaceOnUse">
      <feOffset dx="2" dy="2"/>
      <feGaussianBlur result="blur" stdDeviation="2"/>
      <feFlood flood-color="#000" flood-opacity=".75"/>
      <feComposite in2="blur" operator="in"/>
      <feComposite in="SourceGraphic"/>
    </filter>
  </defs>
  <circle class="cls-3" cx="34.75" cy="34.75" r="34.75"/>
  <path class="cls-1" d="M45.74,51.41c-2.21-.94-4.44-.96-5.89,1.17-.8,1.17-1.73,1.74-2.49,2.03l-.2.05c-1.1.52-2.21.52-3.3.1-1.06-.4-1.95-1.05-2.76-1.85-1.35-1.31-2.72-2.34-4.73-1.75-1.81.53-3.47,1.03-5.27.12-2-1.02-2.66-3.36-1.65-5.31.46-.87.87-1.72,1.22-2.64,1.28-3.46,1.2-7.34,1.01-10.99-.22-4.36.08-8.5,2.4-12.29,3.31-5.41,9.75-7.37,15.7-5.74,4.49,1.23,7.62,4.66,9.08,9,.61,1.8.91,3.59,1.11,5.5.62,6.13.79,10.73.27,16.88-.1,1.17-.26,2.28-.42,3.44-.2,1.44-1.29,2.84-2.92,2.7l-1.16-.41"/>
  <path class="cls-2" d="M35.6,31.41c-.95-.06-1.68-.65-2.15-1.4-1.3-2.08-.64-5.31,1.43-6.56,1.11-.67,2.45-.47,3.33.5,1.54,1.7,1.34,4.66-.15,6.34-.62.7-1.45,1.19-2.45,1.12Z"/>
  <path class="cls-2" d="M44.48,30.66c-2.39-1.53-2.74-5.6-1.07-6.98.57-.47,1.37-.48,2.01-.11,1.91,1.1,2.81,4.42,1.57,6.48-.54.9-1.6,1.2-2.51.62Z"/>
  <path class="cls-2" d="M45.74,35.35s-3.05,5-8.37.53"/>
</svg>